<svg xmlns="http://www.w3.org/2000/svg" width="512" height="512" viewBox="-36 -36 272 272" role="img" aria-label="Crit, Realization"><title>Crit, Realization</title><defs><clipPath id="dark-realization-clip-0"><ellipse cx="74" cy="92" rx="20" ry="20"/></clipPath><clipPath id="dark-realization-clip-1"><ellipse cx="126" cy="92" rx="20" ry="20"/></clipPath></defs><rect x="12" y="12" width="176" height="176" rx="66" ry="66" fill="#241d18"/><rect x="12" y="12" width="176" height="176" rx="66" ry="66" fill="none" stroke="#b08a22" stroke-width="10" stroke-linecap="round" stroke-linejoin="round"/><path d="M54 57Q70 45 86 57" fill="none" stroke="#f7f1ea" stroke-width="10" stroke-linecap="round" stroke-linejoin="round"/><path d="M114 57Q130 45 146 57" fill="none" stroke="#f7f1ea" stroke-width="10" stroke-linecap="round" stroke-linejoin="round"/><ellipse cx="74" cy="92" rx="20" ry="20" fill="#ffffff"/><g clip-path="url(#dark-realization-clip-0)"><ellipse cx="74" cy="92" rx="9.5" ry="9.5" fill="#1a140f"/></g><ellipse cx="74" cy="92" rx="20" ry="20" fill="none" stroke="#f7f1ea" stroke-width="7" stroke-linecap="round" stroke-linejoin="round"/><ellipse cx="126" cy="92" rx="20" ry="20" fill="#ffffff"/><g clip-path="url(#dark-realization-clip-1)"><ellipse cx="126" cy="92" rx="9.5" ry="9.5" fill="#1a140f"/></g><ellipse cx="126" cy="92" rx="20" ry="20" fill="none" stroke="#f7f1ea" stroke-width="7" stroke-linecap="round" stroke-linejoin="round"/><path d="M91 143Q92.206 148 93.853 149.83Q95.5 151.66 97.75 152.33Q100 153 102.25 152.33Q104.5 151.66 106.147 149.83Q107.794 148 108.397 145.5Q109 143 108.397 140.5Q107.794 138 106.147 136.17Q104.5 134.34 102.25 133.67Q100 133 97.75 133.67Q95.5 134.34 93.853 136.17Q92.206 138 91.603 140.5L91 143Z" fill="#f7f1ea"/><path d="M91 143Q92.206 148 93.853 149.83Q95.5 151.66 97.75 152.33Q100 153 102.25 152.33Q104.5 151.66 106.147 149.83Q107.794 148 108.397 145.5Q109 143 108.397 140.5Q107.794 138 106.147 136.17Q104.5 134.34 102.25 133.67Q100 133 97.75 133.67Q95.5 134.34 93.853 136.17Q92.206 138 91.603 140.5L91 143" fill="none" stroke="#f7f1ea" stroke-width="10" stroke-linecap="round" stroke-linejoin="round"/><path d="M45 4.737L37 -9.119" fill="none" stroke="#f7f1ea" stroke-width="8" stroke-linecap="round" stroke-linejoin="round"/><path d="M100 -10L100 -26" fill="none" stroke="#f7f1ea" stroke-width="8" stroke-linecap="round" stroke-linejoin="round"/><path d="M155 4.737L163 -9.119" fill="none" stroke="#f7f1ea" stroke-width="8" stroke-linecap="round" stroke-linejoin="round"/></svg>
