<svg xmlns="http://www.w3.org/2000/svg" width="512" height="512" viewBox="-36 -36 272 272" role="img" aria-label="Crit, Success"><title>Crit, Success</title><rect x="12" y="12" width="176" height="176" rx="66" ry="66" fill="#ffc93c"/><rect x="12" y="12" width="176" height="176" rx="66" ry="66" fill="none" stroke="#1a140f" stroke-width="10" stroke-linecap="round" stroke-linejoin="round"/><ellipse cx="70" cy="88" rx="11" ry="11" fill="#1a140f"/><ellipse cx="130" cy="88" rx="11" ry="11" fill="#1a140f"/><path d="M88 128Q92 132 94 134Q96 136 98 138Q100 140 102 138Q104 136 106 134Q108 132 110 130Q112 128 110 130Q108 132 106 134Q104 136 102 138Q100 140 98 138Q96 136 94 134Q92 132 90 130L88 128" fill="none" stroke="#1a140f" stroke-width="10" stroke-linecap="round" stroke-linejoin="round"/><path d="M45 4.737L37 -9.119" fill="none" stroke="#1a140f" stroke-width="8" stroke-linecap="round" stroke-linejoin="round"/><path d="M100 -10L100 -26" fill="none" stroke="#1a140f" stroke-width="8" stroke-linecap="round" stroke-linejoin="round"/><path d="M155 4.737L163 -9.119" fill="none" stroke="#1a140f" stroke-width="8" stroke-linecap="round" stroke-linejoin="round"/></svg>
